<?xml version="1.0" standalone="no"?><!DOCTYPE svg PUBLIC "-//W3C//DTD SVG 1.1//EN" "http://www.w3.org/Graphics/SVG/1.1/DTD/svg11.dtd"><svg class="icon" width="128px" height="128.00px" viewBox="0 0 1024 1024" version="1.1" xmlns="http://www.w3.org/2000/svg"><path d="M936.348344 1024H87.651656c-48.398958 0-87.651656-39.252698-87.651656-87.651656V87.651656C0 39.252698 39.252698 0 87.651656 0h848.315594c48.398958 0 87.651656 39.252698 87.651656 87.651656v848.315594c0.381094 48.398958-39.252698 88.03275-87.270562 88.03275zM87.651656 45.731299c-23.246744 0-41.920357 18.673614-41.920357 41.920357v848.315594c0 23.246744 18.673614 41.920357 41.920357 41.920357h848.315594c23.246744 0 41.920357-18.673614 41.920357-41.920357V87.651656c0-23.246744-18.673614-41.920357-41.920357-41.920357H87.651656z" fill="#D70051" /><path d="M292.299218 552.967622c-12.576107 0-22.865649-10.289542-22.865649-22.86565V289.250465c0-12.576107 10.289542-22.865649 22.865649-22.865649s22.865649 10.289542 22.86565 22.865649v240.851507c0 12.576107-10.289542 22.865649-22.86565 22.86565zM738.941571 552.967622c-12.576107 0-22.865649-10.289542-22.86565-22.86565V289.250465c0-12.576107 10.289542-22.865649 22.86565-22.865649s22.865649 10.289542 22.865649 22.865649v240.851507c0 12.576107-9.908448 22.865649-22.865649 22.86565z" fill="#D70051" /><path d="M397.481206 439.020469H217.985858c-12.576107 0-22.865649-10.289542-22.86565-22.865649s10.289542-22.865649 22.86565-22.86565h179.495348c12.576107 0 22.865649 10.289542 22.865649 22.86565s-10.289542 22.865649-22.865649 22.865649zM813.636025 430.255303h-201.598809c-12.576107 0-22.865649-10.289542-22.865649-22.865649s10.289542-22.865649 22.865649-22.86565h201.598809c12.576107 0 22.865649 10.289542 22.86565 22.86565s-10.289542 22.865649-22.86565 22.865649z" fill="#D70051" /><path d="M686.350577 767.904726H322.786751c-12.576107 0-22.865649-10.289542-22.865649-22.865649s10.289542-22.865649 22.865649-22.865649h363.563826c12.576107 0 22.865649 10.289542 22.865649 22.865649s-9.908448 22.865649-22.865649 22.865649z" fill="#F8B62D" /></svg>